<svg xmlns="http://www.w3.org/2000/svg" viewBox="0 0 330.97 300"><defs><style>.cls-1{fill:#fff;}.cls-2{fill:none;}.cls-3{fill:#dcc7b5;}.cls-4{fill:#ce181e;}.cls-5{fill:#eb9540;}.cls-6{fill:#2e3192;}.cls-7{fill:#034ea2;}.cls-8{fill:#231f20;}</style></defs><g id="Layer_2" data-name="Layer 2"><g id="Layer_1-2" data-name="Layer 1"><path class="cls-1" d="M48,120.43A119,119,0,1,1,167,239.37,119,119,0,0,1,48,120.43Z"/><path class="cls-2" d="M209.84,175.78l-4.7-6,4.7,6A70.07,70.07,0,1,0,128.52,179l3.56-6.27L128.52,179a69.73,69.73,0,0,0,81.32-3.22Z"/><path class="cls-3" d="M96.85,120.43A70.12,70.12,0,1,0,167,50.31,70.19,70.19,0,0,0,96.85,120.43Z"/><path class="cls-4" d="M203.84,103.7a1,1,0,0,1-.1-2l6.73-.76a1,1,0,1,1,.22,1.94l-6.73.77Z"/><path class="cls-4" d="M202.16,96.21a1,1,0,0,1-.88-.55,1,1,0,0,1,.45-1.31l6-2.91a1,1,0,1,1,.85,1.76l-6,2.91A1,1,0,0,1,202.16,96.21Z"/><path class="cls-4" d="M198.18,88.55a1,1,0,0,1-.55-1.79l3.83-2.6a1,1,0,0,1,1.36.26,1,1,0,0,1-.26,1.37l-3.83,2.59A.94.94,0,0,1,198.18,88.55Z"/><path class="cls-4" d="M192.07,83.19a1,1,0,0,1-.67-.26,1,1,0,0,1-.05-1.39l6-6.43a1,1,0,1,1,1.43,1.33l-6,6.44A1,1,0,0,1,192.07,83.19Z"/><path class="cls-4" d="M185,79.37a.9.9,0,0,1-.5-.14,1,1,0,0,1-.34-1.34L187.08,73a1,1,0,0,1,1.69,1l-2.92,4.91A1,1,0,0,1,185,79.37Z"/><path class="cls-4" d="M177.82,76.3a1.1,1.1,0,0,1-.4-.08,1,1,0,0,1-.5-1.29l3.82-8.72a1,1,0,0,1,1.8.78l-3.83,8.72A1,1,0,0,1,177.82,76.3Z"/><path class="cls-4" d="M171.08,76a1,1,0,0,1-1-1V68.74a1,1,0,1,1,2,0V75A1,1,0,0,1,171.08,76Z"/><path class="cls-4" d="M163.58,75.85a1,1,0,0,1-1-.85l-1.38-10.42a1,1,0,0,1,1.94-.26l1.38,10.42a1,1,0,0,1-.84,1.1Z"/><path class="cls-4" d="M156.84,77.22a1,1,0,0,1-.87-.54l-2.6-5.21a1,1,0,1,1,1.75-.87l2.6,5.21a1,1,0,0,1-.88,1.41Z"/><path class="cls-4" d="M149.5,80a1,1,0,0,1-.81-.43l-5.51-8.11a1,1,0,0,1,1.63-1.1l5.5,8.11a1,1,0,0,1-.26,1.36A1,1,0,0,1,149.5,80Z"/><path class="cls-4" d="M142.91,84.26a1,1,0,0,1-.72-.32l-3.53-3.82a1,1,0,0,1,1.44-1.33l3.53,3.82a1,1,0,0,1-.06,1.39A1,1,0,0,1,142.91,84.26Z"/><path class="cls-4" d="M137.86,89.93a.94.94,0,0,1-.53-.16L130,85a1,1,0,0,1,1.06-1.65l7.34,4.75a1,1,0,0,1,.29,1.35A1,1,0,0,1,137.86,89.93Z"/><path class="cls-4" d="M133.58,96.81a.94.94,0,0,1-.37-.07L128,94.6a1,1,0,0,1,.75-1.81L134,94.93a1,1,0,0,1-.37,1.88Z"/><path class="cls-4" d="M132.34,103.86h0l-8.72-.3a1,1,0,0,1-1-1,1,1,0,0,1,1-.94l8.72.3a1,1,0,0,1,.94,1A1,1,0,0,1,132.34,103.86Z"/><path class="cls-5" d="M167.71,73.48c-20.17,0-36.54,13.3-36.54,29.71s16.37,29.67,36.54,29.67,36.54-13.29,36.54-29.67S187.9,73.48,167.71,73.48Zm0,54.86c-17,0-30.87-11-30.87-24.68S150.67,79,167.71,79,198.58,90,198.58,103.66,184.77,128.34,167.71,128.34Z"/><path class="cls-4" d="M167.71,79c-17,0-30.87,11.05-30.87,24.67s13.83,24.68,30.87,24.68,30.87-11,30.87-24.68S184.77,79,167.71,79Z"/><path class="cls-6" d="M194.51,105a4,4,0,0,1-.09.5v0s-14.59-2.7-26.47,2.74c-5.78.32-17.5,16.12-15.08,21.6A50,50,0,0,0,162.43,143a5.23,5.23,0,0,1,.62.56c-5.16-2.21-13-5.28-15-5.43,1.71-8.86-7.61-29.5-8.85-32.46-1.24-.49-4.91,0-9.1,1.48,2.94,8.36,10.58,27.77,12.54,36.14,12.78-1.23,25.07,5.4,25.07,5.4,4.68-4.42,24.1-5.4,24.1-5.4l13.76-35.9Z"/><path class="cls-1" d="M194.51,105l-6.63,33.67-19.41,6.15V108.15S173.14,103,194.51,105Z"/><path class="cls-1" d="M139.23,105.11l9.29,33.51L168,144.77V108.15S160.63,103.14,139.23,105.11Z"/><path class="cls-6" d="M203.05,130.91s-3.1,20.9-23.24,20.4c-9.55-.52-8.78-2.08-15.48-1.82a36,36,0,0,0-12.66,2.34c-6.19,2.06-17.29-3.09-23.22-20.67H112.7s5.15,47,53.44,47,52.41-38.46,52.66-47.25Z"/><path class="cls-1" d="M126.49,158l2.52-2.67,2.16-.93-2.35,5.31,1.43.94,2.72-7.07,4.7-2.45-1.17-.8-5.35,2.71,3.67-3.92-.64-.51-8.83,8.48Z"/><path class="cls-1" d="M137.58,158.79l.81-1.31.36-.89v-.81l-.43-.55c-.48-.27-1.15-.1-2,.48l.77-1-.85-.54-5.37,6.91,1.05.68,2.37-3.16a12.87,12.87,0,0,1,1.28-1.57l.8-.53H137l.21.38-.15.65a15.7,15.7,0,0,1-1,1.52l-2.57,3.62,1.1.64Z"/><path class="cls-1" d="M136.72,162.31l-.09,1.76.85,1a2.22,2.22,0,0,0,2.24-.34,7.39,7.39,0,0,0,2.2-2.55,7.27,7.27,0,0,0,1-3.1c0-.91-.2-1.52-.76-1.78h-1.28l-1.58,1L137.84,160Zm3.45-3.17c.44-.3.78-.39,1-.25l.33.91-.73,1.85a4.88,4.88,0,0,1-1.29,1.59,1.12,1.12,0,0,1-1.09.26l-.36-1,.79-1.8A5.42,5.42,0,0,1,140.17,159.14Z"/><path class="cls-1" d="M142.73,167.18l3.14-4.71-1.6,5.32,1.16.43,4.71-7.46-1-.32L146,165.31l1.65-5.39-1-.4-3.21,4.77,1.8-5.33-1-.41-2.72,8.16Z"/><path class="cls-1" d="M148.76,169.28l4.05-11.08-1-.3-4.31,11Z"/><path class="cls-1" d="M153,168.56l-.56.15-.53-.68.19-1.56,3,.66a9.52,9.52,0,0,0,.43-3.82c-.12-.88-.48-1.38-1.1-1.51s-1.09.19-1.71.82a8.35,8.35,0,0,0-1.61,3,7.8,7.8,0,0,0-.54,2.94,1.72,1.72,0,0,0,1.38,1.82,1.78,1.78,0,0,0,1.5-.33,4.41,4.41,0,0,0,1.23-1.66l-1.1-.63Zm-.46-3.39.68-1.33.76-.38.44.61-.16,1.48Z"/><path class="cls-1" d="M161.37,160l-1-.1-.73,4.14c-.21-.81-.53-1.25-1-1.3s-1,.18-1.49.86a8,8,0,0,0-1.29,3.08,7.51,7.51,0,0,0-.21,3.34c.23.85.62,1.36,1.18,1.45l.91-.27.9-1-.21,1.23,1.2.12Zm-3.57,5c.26-.37.54-.56.8-.53l.58.71a5.51,5.51,0,0,1-.09,2.09,4.7,4.7,0,0,1-.64,1.92c-.28.42-.57.6-.87.57s-.61-.38-.68-1a6.82,6.82,0,0,1,.22-2A4.94,4.94,0,0,1,157.8,165Z"/><path class="cls-1" d="M160.72,172.46l.3,1.93a2.25,2.25,0,0,0,1.84.94l1.21-.22.78-.65.47-1.17a11.11,11.11,0,0,0,.22-2.24l.23-7.59h-1l-.07,1.18c-.29-.91-.67-1.33-1.18-1.41s-.94.27-1.37,1a8.54,8.54,0,0,0-.94,3.18l.1,2.85c.25,1,.74,1.54,1.42,1.59s1.14-.4,1.59-1.34l-.09,1.26-.12,1-.31.57-.84.25-.59-.31-.13-.67-1.46-.43Zm2.18-7c.22-.39.47-.57.72-.54a.83.83,0,0,1,.67.64,5.25,5.25,0,0,1,.18,2,4.46,4.46,0,0,1-.45,1.88c-.24.41-.52.64-.83.61l-.67-.71a4.86,4.86,0,0,1-.09-2A5.17,5.17,0,0,1,162.9,165.51Z"/><path class="cls-1" d="M169.29,170.11l-.49.28-.74-.55-.34-1.54,3.07-.12a9.25,9.25,0,0,0-.83-3.69c-.42-.78-.93-1.25-1.54-1.23s-1,.4-1.36,1.19a8.22,8.22,0,0,0-.58,3.29l.44,2.93a2,2,0,0,0,1.93,1.42,1.58,1.58,0,0,0,1.34-.66l.63-1.94-1.28-.28Zm-1.56-3.18.22-1.43.61-.53.62.5.33,1.46Z"/><path class="cls-1" d="M174.34,161.71l-.38-2-1,.13.33,2Zm1.79,9.42-1.58-8.31-1.07.15,1.35,8.32Z"/><path class="cls-1" d="M177.71,170.42a1.83,1.83,0,0,0,1.7.27,1.86,1.86,0,0,0,1.41-1.22l0-2.08-.87-1.49-1.56-.64a3.09,3.09,0,0,1-1.21-.33l-.22-.36,0-.5.57-.41.6.12.46.67.94-.65-1-1.45a1.43,1.43,0,0,0-1.36-.22A1.46,1.46,0,0,0,176,163.2l0,1.88a2.88,2.88,0,0,0,.91,1.77,4.62,4.62,0,0,0,2.09.61l.48.19.2.39v.62l-.65.49-.74-.14-.55-.87-1.15.6A3.52,3.52,0,0,0,177.71,170.42Z"/><path class="cls-1" d="M186.51,168.42l-1.71-4.09.77-.31,1.14-.63.36-.77,0-1.23-.65-1.71-1.33-1.93a2.28,2.28,0,0,0-1.22-.75l-1.28.32L181,158l4.27,10.93Zm-3.28-9.22L184,159l.66.29.62.9.28.88-.11.68-.83.53-.6.26-1.31-3.12Z"/><path class="cls-1" d="M190.21,164.9l1.58,1a1.88,1.88,0,0,0,1.43-.05,1.93,1.93,0,0,0,.88-2,6.73,6.73,0,0,0-1.13-3.1,7.9,7.9,0,0,0-2.26-2.41,1.88,1.88,0,0,0-2-.31L188,159l0,1.73.77,2Zm-.94-4.31.35-.91c.26-.15.6-.07,1,.22a5.26,5.26,0,0,1,1.29,1.54l.76,1.86-.36,1c-.29.18-.67.06-1.09-.25a5,5,0,0,1-1.27-1.61Z"/><path class="cls-1" d="M198,162.91,195.46,158l4,4.1,1.08-.62-4.21-7.64-.88.65,2.73,4.92-4-4.18-.93.52,2.6,5-3.9-4.26L191,157l6,6.49Z"/><path class="cls-1" d="M203,157.43l-.19.5-.92,0-1.27-1L203,155.1a10.81,10.81,0,0,0-3.06-2.61,2,2,0,0,0-2.05-.09c-.43.34-.53.93-.31,1.79a8.83,8.83,0,0,0,1.7,3,8.74,8.74,0,0,0,2.26,2.06,2.13,2.13,0,0,0,2.42.09l.59-1.28-.71-1.88-1.24.42Zm-3.27-1.65L199,154.5l.13-.79.8,0,1.22,1Z"/><path class="cls-1" d="M205.38,154.57a27.74,27.74,0,0,1-2-2.18l-.47-.86.14-.43.7,0-1.14-1.63-.9.11-.19.49.42,1.11-.86-.89-.82.6,6,6.4,1-.74Z"/><path class="cls-4" d="M167,190.54A69.7,69.7,0,0,1,128.52,179l-24.19,42.42a118.38,118.38,0,0,0,135.8-7.34l-30.29-38.3A69.56,69.56,0,0,1,167,190.54Z"/><path class="cls-1" d="M122.76,218.66c2.82,1.28,5,2,7.49,2.93a7.6,7.6,0,0,0,3.57.59,6.69,6.69,0,0,0,3.29-1.26,12.23,12.23,0,0,0,3.28-3.94,24.51,24.51,0,0,0,2.07-5.33,30.79,30.79,0,0,0,1.14-6.23,15.21,15.21,0,0,0-.32-4.61,5.84,5.84,0,0,0-1.6-3,9.61,9.61,0,0,0-2.65-1.43c-1.76-.65-3.73-1.34-5-1.9Zm13.59-18.49a10.42,10.42,0,0,1,2.45,1.18l1.08,1.65.14,2.74a24.15,24.15,0,0,1-1.07,4.63,23.32,23.32,0,0,1-1.81,4.57,6.8,6.8,0,0,1-1.73,2.19l-1.82.6a7.18,7.18,0,0,1-2.31-.58l-2.74-1L135,199.67Z"/><path class="cls-1" d="M146.22,226l2.48-11.44,7.09,1.42L154,227.58l4,.43,3.23-26.49-3.15-.32-1.61,10.34-6.82-1.37,2.23-10.24-3.13-.62-6.47,25.91Z"/><path class="cls-1" d="M172.19,202.2h-3.31a225,225,0,0,1-8.8,26l4.33.4,2-5.9a38.59,38.59,0,0,0,7.75,0l1.91,6,4.45-.23A185.28,185.28,0,0,1,172.19,202.2Zm-4.43,16.1,2.67-9.75,2.42,9.77A27,27,0,0,1,167.76,218.3Z"/><path class="cls-1" d="M186.79,228l-1.14-8,2.24-5.1a130.24,130.24,0,0,0,7.82,11.1l5.32-1.26a121.59,121.59,0,0,1-11.49-14.13,92.91,92.91,0,0,0,3.27-11.31l-3.92.87a99.46,99.46,0,0,1-4.21,13.08L183,201.54a14.52,14.52,0,0,1-3,.26l2.69,26.57A22.31,22.31,0,0,0,186.79,228Z"/><path class="cls-1" d="M201.21,195.7,198.38,197a145.47,145.47,0,0,1,2.77,27.64,15.22,15.22,0,0,0,4.29-1.5l-.63-6.35,7.21-3.37,4.43,4.56,4.15-2A152.23,152.23,0,0,1,201.21,195.7Zm3,16.45-1.78-10.09,6.46,7.89Z"/><path class="cls-4" d="M167,191.76a71.34,71.34,0,1,1,71.34-71.33A71.42,71.42,0,0,1,167,191.76Zm0-140.23a68.89,68.89,0,1,0,68.89,68.9A69,69,0,0,0,167,51.53Z"/><path class="cls-4" d="M167,240.84A120.42,120.42,0,1,1,287.39,120.43,120.56,120.56,0,0,1,167,240.84Zm0-237.9A117.48,117.48,0,1,0,284.45,120.43,117.63,117.63,0,0,0,167,2.94Z"/><path class="cls-7" d="M89.5,184a104.36,104.36,0,0,1,7.44-15.6l-1-1.54-1.05-1.52L76.79,176.6,78,178.41l1.21,1.79,12.35-8.43a104.92,104.92,0,0,0-7,15.58l1.55,1.89,1.54,1.9L103.55,177l-1.11-1.36-1.09-1.36Z"/><path class="cls-7" d="M87.35,150l-1.78.65-1.76.67c1.2,3.18,2.63,6.3,4.11,9.38L83,163.22c-1.47-2.86-2.68-5.86-4-8.8l-1.71.65-1.7.66c1.35,3.05,2.62,6.18,4.15,9.15L75.68,167c-1.67-3.38-3.21-6.87-4.59-10.37l-1.78.66-1.76.66a109.38,109.38,0,0,0,7,14.84l18.51-10.51A81.56,81.56,0,0,1,87.35,150Z"/><path class="cls-7" d="M84.87,142.16l-.42-1.72c-5.63.4-11.32.63-17,.68q7.77-3.37,15.87-6.21L83,133.16l-.26-1.75A190.24,190.24,0,0,1,61.06,128l.11,2.35.32,2.33q7.92.94,15.77,1.36h0c-5,1.67-9.9,3.52-14.8,5.49l.49,2.43.57,2.41q7.95-.19,15.81-.85h0c-4.78,2.34-9.56,4.88-14.09,7.53l.77,2.31.76,2.29a203.4,203.4,0,0,1,18.49-11.75Z"/><path class="cls-7" d="M64.1,112.64h0c6.15-.89,12.2-1.56,18.5-2l.27-1.8.28-1.81q-8.58-3-17.06-6.78h0l17.57,3.49.37-1.7.44-1.68-20.68-5L63,98.67,62.4,102q8,3.45,16.11,6.24c-5.73.36-11.55.93-17.27,1.73l-.18,3.4-.17,3.41,21.26.73.09-1.75.08-1.74Z"/><path class="cls-7" d="M88.39,89.84a8.66,8.66,0,0,0-.23-7A13.35,13.35,0,0,0,82,77c-3.09-1.57-5.93-2-8.59-1.22a8.93,8.93,0,0,0-5.91,5.89c-1.12,3.1-1.1,5.89.29,8.29s3.9,4,7.26,5a13.06,13.06,0,0,0,8.42-.14A8,8,0,0,0,88.39,89.84Zm-3.51-1.36a4.28,4.28,0,0,1-3.12,2.83,9.92,9.92,0,0,1-5.62-.41,8.48,8.48,0,0,1-4.76-3.15,5.06,5.06,0,0,1-.42-4.7,4.6,4.6,0,0,1,3.46-3.2,9,9,0,0,1,5.71.92,9.48,9.48,0,0,1,4.34,3.49A4.89,4.89,0,0,1,84.88,88.48Z"/><path class="cls-7" d="M92.7,79.19l1-1.59,2.82-4.68a6.74,6.74,0,0,0,1.24-6.39c-.68-2.26-2.39-4.59-5.21-6.9-2.56-2.1-5-3.1-7.24-2.92s-4.38,1.55-6.19,4L75.3,66.85l-1.19,2ZM79.62,66.76l2.16-3.54a4.45,4.45,0,0,1,3.62-2.1,8.13,8.13,0,0,1,4.73,2,10.32,10.32,0,0,1,3.7,4.27,4.06,4.06,0,0,1-.61,3.94l-1.7,2.8Z"/><path class="cls-7" d="M112.67,55.08l-1.22-1.47-1.2-1.43c-2.45,2.37-5.2,4.45-7.44,7l-4-3.83c2.08-2.47,4.7-4.42,7-6.67l-1.19-1.38L103.45,46c-2.41,2.32-5.12,4.34-7.29,6.92l-3.3-3.14c2.48-2.87,5.51-5.21,8.25-7.81L99.9,40.49,98.68,39A112.53,112.53,0,0,0,87,50.58l16,14A94.92,94.92,0,0,1,112.67,55.08Z"/><path class="cls-7" d="M125.52,46.28l-.93-1.65L123.67,43c-2.58,1.69-5.37,3-7.81,5l-10.1-14.31L103.89,35l-1.84,1.39,13,16.83A84.89,84.89,0,0,1,125.52,46.28Z"/><path class="cls-7" d="M134,42.07l1.75-.63,5.12-1.87a7.13,7.13,0,0,0,4.9-4.29c.86-2.17,1-5.06.16-8.61-.71-3.24-2-5.52-3.9-6.79a8.4,8.4,0,0,0-7.34-.69l-6.79,2.48-2.15.8Zm-2.64-17.8,3.91-1.42a4.12,4.12,0,0,1,4.13.52,8.17,8.17,0,0,1,2.51,4.49,10.13,10.13,0,0,1,.26,5.62,4.33,4.33,0,0,1-2.88,2.78l-3.06,1.13Z"/><path class="cls-7" d="M164.59,35.57l-.07-1.89,0-1.88a74,74,0,0,0-10.21.89l-.79-5.49a63.28,63.28,0,0,1,9.64-.88l-.07-1.82L163,22.68a68.47,68.47,0,0,0-10,.91l-.65-4.51a79.46,79.46,0,0,1,11.31-1l-.06-1.89-.06-1.88a104.14,104.14,0,0,0-16.32,1.75L151.13,37A82.05,82.05,0,0,1,164.59,35.57Z"/><path class="cls-7" d="M175.18,36.45a5.94,5.94,0,0,0,5.46-2.24l.28-.3-.09,2.77,2.46.37,2.2-11.28-8.38-1.28-.37,3.62,4.51.7v0a9.15,9.15,0,0,1-1.43,2.46,3.88,3.88,0,0,1-3.73,1.43h0a4.63,4.63,0,0,1-3.87-2.09,9.51,9.51,0,0,1-1.16-5.6,8.41,8.41,0,0,1,1.87-5.49,5.56,5.56,0,0,1,4.71-1.76,5.13,5.13,0,0,1,2.95,1.51A3.63,3.63,0,0,1,181.81,22l4.29.66a6.89,6.89,0,0,0-2-5.59,10.7,10.7,0,0,0-6.33-2.93c-3.39-.17-6.16.71-8.13,2.66s-2.89,4.65-2.89,8.16a13.78,13.78,0,0,0,2.38,8.23,7.48,7.48,0,0,0,6,3.3Z"/><path class="cls-7" d="M186.71,37.85l1.8.46,1.8.46,2.29-8.08a26.37,26.37,0,0,1,3.91,1.2,4,4,0,0,1,2.13,1.43,2.53,2.53,0,0,1,0,2.17L198,37.34l-.71,2.26A5.18,5.18,0,0,0,197,41a40,40,0,0,1,3.81,1.48l.23-.5-.27-.91a5.24,5.24,0,0,1,.41-1.44l1.29-3.26a3.89,3.89,0,0,0-.25-4l-.49-.54,1.33-.2a5.48,5.48,0,0,0,3.59-3.39,5.09,5.09,0,0,0-.08-4.67,7.43,7.43,0,0,0-4.18-3.29,59.62,59.62,0,0,0-8.53-2.61l-2.24-.57Zm8.44-16a35.6,35.6,0,0,1,5.13,1.64,3.73,3.73,0,0,1,2.09,1.49,2.65,2.65,0,0,1,0,2.28,2.83,2.83,0,0,1-1.54,1.72,4,4,0,0,1-2.56-.19,32.47,32.47,0,0,0-4.7-1.49Z"/><path class="cls-7" d="M215.26,50.55,216.34,49l1.06-1.54c-2.82-1.9-5.78-3.65-8.74-5.35l2.61-4.9,8.32,5,1-1.53,1-1.49L213,34l2.14-4,9.71,5.89,1.08-1.55,1-1.56a110.27,110.27,0,0,0-14.26-8.14l-9.17,19.2A85,85,0,0,1,215.26,50.55Z"/><path class="cls-7" d="M227.87,61.24l1.36-1.32,1.35-1.3c-2.38-2.46-5-4.68-7.54-7l3.51-4.29,7.18,6.49,1.3-1.3,1.3-1.28-7.48-6.73L231.74,41l8.37,7.66,1.35-1.31,1.34-1.32A110,110,0,0,0,230.41,35.3L217.68,52.37A81.79,81.79,0,0,1,227.87,61.24Z"/><path class="cls-7" d="M247.11,74.5a4.87,4.87,0,0,1-3.34.39,3.74,3.74,0,0,1-2.44-1.81,4.34,4.34,0,0,1-.25-3.94A9.88,9.88,0,0,1,244.7,65,9.4,9.4,0,0,1,250,63a4.1,4.1,0,0,1,3.78,2.18,5.06,5.06,0,0,1,.83,3.32A3.89,3.89,0,0,1,253,71.11l2.08,3.8a7.73,7.73,0,0,0,3.55-5.23A9.9,9.9,0,0,0,257,63a8.39,8.39,0,0,0-6.73-4.34c-2.72-.23-5.4.79-8.14,2.94a13.8,13.8,0,0,0-5,6.84,8.14,8.14,0,0,0,1,6.65,7.2,7.2,0,0,0,4.64,3.43,9.87,9.87,0,0,0,6.34-.51Z"/><path class="cls-7" d="M246.09,91.35a8.78,8.78,0,0,0,4.85,5.07,13.12,13.12,0,0,0,8.45.28c3.37-.86,5.82-2.39,7.31-4.78s1.63-5.2.49-8.32-3-5.19-5.76-6-5.53-.46-8.66,1.08a13.2,13.2,0,0,0-6.26,5.7A8.78,8.78,0,0,0,246.09,91.35Zm3.54-1.29a4.44,4.44,0,0,1,.54-4.22,9.65,9.65,0,0,1,4.44-3.41,8.78,8.78,0,0,1,5.71-.81,5.49,5.49,0,0,1,2.9,8,8.63,8.63,0,0,1-4.85,3.07,9.8,9.8,0,0,1-5.61.28A4.48,4.48,0,0,1,249.63,90.06Z"/><path class="cls-7" d="M251.65,114.63l1.88-.12,1.86-.13a69.57,69.57,0,0,0-1.08-9.19l17.26-3-.36-2.3-.49-2.26-20.79,4.54C250.63,106.31,251.56,110.42,251.65,114.63Z"/><path class="cls-7" d="M251.38,129.78l1.87.21,1.87.2c.41-3.06.34-6.16.57-9.23l17.51.09-.05-2.33-.11-2.31-21.27.8A75.41,75.41,0,0,1,251.38,129.78Z"/><path class="cls-7" d="M248.1,145.52l1.8.56,1.79.55c1.15-3.23,1.68-6.62,2.52-9.92l5.46,1c-.74,3.13-1.4,6.31-2.29,9.4l1.75.52,1.75.51c.92-3.22,1.6-6.5,2.36-9.77l4.49.83c-.9,3.68-1.56,7.43-2.75,11l1.81.56,1.8.54a99.94,99.94,0,0,0,3.49-16l-21.07-3A77.16,77.16,0,0,1,248.1,145.52Z"/><path class="cls-7" d="M243.77,155.2a6.61,6.61,0,0,0,.43,5.93l.2.35-2.61-1-1.19,2.17,10,5.74a79.75,79.75,0,0,0,3.9-7.51l-3.31-1.53-2,4.08,0,0a8.21,8.21,0,0,1-1.84-2.14,4.43,4.43,0,0,1-.27-4.06v0a4.67,4.67,0,0,1,3.35-2.92,9.66,9.66,0,0,1,5.7.72,8.26,8.26,0,0,1,4.56,3.54,5.48,5.48,0,0,1,0,5,4.6,4.6,0,0,1-2.25,2.37,3.65,3.65,0,0,1-2.91.26l-2.11,3.83a7.12,7.12,0,0,0,6-.05,9.22,9.22,0,0,0,4.72-5.08c1.32-3.14,1.6-5.95.24-8.52s-3.63-4.29-6.92-5.41a13.3,13.3,0,0,0-8.43-.38,8.23,8.23,0,0,0-5.16,4.6Z"/><path class="cls-7" d="M230.73,176.58l1.41,1.24,1.4,1.24c2.07-2.73,4.48-5.19,6.26-8.12l4.58,3.17c-1.7,2.76-4,5.11-5.9,7.67l1.38,1.2,1.38,1.17c2-2.65,4.37-5.09,6.13-8l3.73,2.6c-2,3.22-4.63,6-6.94,9l1.42,1.24,1.42,1.24a116.33,116.33,0,0,0,9.78-13.17l-18-11.38A100.51,100.51,0,0,1,230.73,176.58Z"/><path class="cls-4" d="M43.09,239.12C18.76,215.29,9.33,193.5,2,176.94c7.9,3.48,16.41,4.07,24.32,5.23.92-7.55,11-24.4,11-24.4s7.29,24.7,31.93,52.87a56.53,56.53,0,0,0-2.44,6.69Z"/><path class="cls-8" d="M43.07,240.55l-.71-.69c-24.17-23.68-33.91-45.77-41-61.9L0,174.9,2.46,176c6.33,2.8,13.12,3.7,19.68,4.56l3.36.46c1.59-8,10.52-23.1,10.91-23.76l1.22-2.05.68,2.28c.07.25,7.53,24.83,31.71,52.49l.43.49-.25.59a56.08,56.08,0,0,0-2.39,6.55l-.08.3-.22.21ZM4,178.86c7.24,16.39,16.53,36.5,39.1,58.82l22.76-20.92A59.28,59.28,0,0,1,68,210.84c-20-23-28.56-43.88-31-50.56-2.64,4.64-9,16.27-9.66,22l-.13,1.06-1.06-.15c-1.43-.22-2.88-.41-4.34-.6C16,181.83,9.89,181,4,178.86Z"/><path class="cls-4" d="M68.62,217,36.4,247s47.74,52,128.92,52c33.45,0,77.83-8.13,127.08-49.1-17.62-16-31-29.34-31-29.34S226.74,256,166.54,256C145.85,256,104.51,253.05,68.62,217Z"/><path class="cls-8" d="M165.32,300a188.65,188.65,0,0,1-95.43-26.14c-22-12.93-34.14-26.07-34.26-26.2l-.7-.76,33.72-31.31.71.71c25.54,25.63,58.23,38.63,97.18,38.63,59,0,93.77-34.78,94.11-35.13l.74-.75.74.74c.13.13,13.57,13.52,31,29.3l.89.81-.92.76C253.16,283.86,211.37,300,165.32,300ZM37.88,247c2.89,2.94,14.4,14.08,33.13,25.1a186.49,186.49,0,0,0,94.31,25.82c45.19,0,86.25-15.74,125.49-48.09-14.72-13.38-26.45-24.9-29.42-27.84A119.7,119.7,0,0,1,237,239.16,147.06,147.06,0,0,1,166.54,257,149.38,149.38,0,0,1,123,251,129.87,129.87,0,0,1,68.6,218.48Z"/><path class="cls-4" d="M261.39,220.52l.31-7.26s28.28-30.79,33.45-51.13a178.93,178.93,0,0,0,6.68,24.11l27.38-3.2s-21.28,43.87-44.39,60.14C276,234.76,261.39,220.52,261.39,220.52Z"/><path class="cls-8" d="M284.72,244.53l-.62-.59c-8.73-8.33-23.29-22.53-23.43-22.67l-.34-.32.35-8.12.26-.28c.28-.3,28.16-30.83,33.2-50.68l2,0a186.89,186.89,0,0,0,6.36,23.19L331,181.79l-.83,1.71c-.87,1.8-21.66,44.3-44.72,60.54ZM262.46,220.1c2.17,2.12,14.44,14.07,22.45,21.73,19.79-14.44,38.35-49.39,42.5-57.53l-26.26,3.07-.29-.76A171.74,171.74,0,0,1,295,166.2c-6.92,19.24-29.41,44.36-32.25,47.48Z"/><path class="cls-1" d="M79.53,265.84l2-3.17A119.75,119.75,0,0,1,68,253.23l3.68-4.61a94.41,94.41,0,0,0,11.56,8.16l2-3.14A91.86,91.86,0,0,1,74,245.7l3-3.8a97.85,97.85,0,0,0,11.66,8.17l2-3.16A133.65,133.65,0,0,1,75.25,235.8L60.81,252.31A157.15,157.15,0,0,0,79.53,265.84Z"/><path class="cls-1" d="M86.47,268.11c1.17,2.06,3.49,4,6.89,5.75a18.63,18.63,0,0,0,6.34,1.87,8.44,8.44,0,0,0,4.67-.73,5.27,5.27,0,0,0,2.58-2.76,5.59,5.59,0,0,0,.2-3.68,7.56,7.56,0,0,0-2-3.23,34.26,34.26,0,0,0-4.92-3.76,16.73,16.73,0,0,1-3.83-3.65,1.57,1.57,0,0,1-.1-1.56,1.52,1.52,0,0,1,1.38-.81,7,7,0,0,1,3.6,1,7.82,7.82,0,0,1,2.77,2.09,3.48,3.48,0,0,1,.4,2.79l5.16,1.92a6.28,6.28,0,0,0-.65-5.5c-1-1.8-3.13-3.12-6-4.56a15.07,15.07,0,0,0-4.86-1.66,7.31,7.31,0,0,0-3.95.45,5.24,5.24,0,0,0-2.57,2.2,5,5,0,0,0,.07,5q1,2,4.64,4.86c1.87,1.56,3.15,2.43,3.71,2.83a5.16,5.16,0,0,1,1.53,1.64,1.63,1.63,0,0,1,0,1.43,2.52,2.52,0,0,1-2.16,1.37,7.21,7.21,0,0,1-4.32-.92,8,8,0,0,1-3.36-2.87,4.74,4.74,0,0,1-.39-3.75l-5.22-2.24A7,7,0,0,0,86.47,268.11Z"/><path class="cls-1" d="M121.65,283.68l4.63-17.58,7.64,1.66.76-3.64a161.28,161.28,0,0,1-19.77-5.41l-1.26,3.5,7.45,2.32-5.27,17.4Z"/><path class="cls-1" d="M134.06,286.4,145.32,288a19.14,19.14,0,0,0,5.36.15,11.76,11.76,0,0,0,4.31-1.55,9.29,9.29,0,0,0,3.32-3.73,11.08,11.08,0,0,0,1.05-4.62,13.58,13.58,0,0,0-.71-5.21,9.81,9.81,0,0,0-2.4-3.65,9,9,0,0,0-3.83-2.18,31.36,31.36,0,0,0-4.89-1L138,264.85Zm11-16.79a28.54,28.54,0,0,1,4.36.78,6.71,6.71,0,0,1,2.39,1.3,4.92,4.92,0,0,1,1.41,2.17,11.15,11.15,0,0,1,.27,3.9,11,11,0,0,1-.86,4,4.71,4.71,0,0,1-1.7,2,5.22,5.22,0,0,1-2.43.66,23.33,23.33,0,0,1-3.57-.25l-4.36-.57,2.08-14.32Z"/><path class="cls-1" d="M170.4,277.27l-.14-4.2-5.19.23v4.19Zm.39,11.7-.13-4.21-5.59.24v4.2Z"/><path class="cls-1" d="M197.69,263.49l-3.93.86a8,8,0,0,1-2.48,4.09,15.29,15.29,0,0,1-4,2.56l.53,3.74A15,15,0,0,0,194,270.6l3,15.6,5.61-1.22Z"/><path class="cls-1" d="M213.35,281.2a10.4,10.4,0,0,0,5.83-.37,10,10,0,0,0,6.47-5.21c1.21-2.41,1-5.45-.56-9.16s-3.44-5.92-5.64-6.87a10.08,10.08,0,0,0-7-.18,8.83,8.83,0,0,0-5.11,3.73,7,7,0,0,0-.83,5.88,6.12,6.12,0,0,0,3.68,4.28,8.74,8.74,0,0,0,6.12.18,6.56,6.56,0,0,0,4.26-3.37c.69,2.44.79,4.22.31,5.26a3.82,3.82,0,0,1-2.4,2,3.67,3.67,0,0,1-2.3.09,2.7,2.7,0,0,1-1.56-1.46l-5,2A5.86,5.86,0,0,0,213.35,281.2Zm5.05-12.57a3.63,3.63,0,0,1-2.15,1.67,3.75,3.75,0,0,1-2.86-.16,4,4,0,0,1-1.94-2.65,4.11,4.11,0,0,1,0-3.16,3.13,3.13,0,0,1,1.94-1.56,3.77,3.77,0,0,1,2.87.28,4.21,4.21,0,0,1,2.15,2.56A3.68,3.68,0,0,1,218.4,268.63Z"/><path class="cls-1" d="M237.26,249.83a8.45,8.45,0,0,0-5,1,9.49,9.49,0,0,0-4.87,5.56c-.87,2.31-.55,5.28,1.09,9s3.61,5.83,6.11,6.63a10.41,10.41,0,0,0,7.77-1.11c2.52-1.33,4.29-2.91,5.11-5.05a6.78,6.78,0,0,0-5.27-9.15,9.56,9.56,0,0,0-5.95.94,7,7,0,0,0-3.5,3.89c-1-2.36-1.27-4.08-1-5.13a3.47,3.47,0,0,1,1.83-2.33,3.07,3.07,0,0,1,2-.37,3,3,0,0,1,1.74,1.18l4.09-2.9A6.3,6.3,0,0,0,237.26,249.83Zm-2.2,12.95a3.85,3.85,0,0,1,1.88-2.06,3.9,3.9,0,0,1,2.86-.35,4.19,4.19,0,0,1,2.51,2.23,3.57,3.57,0,0,1,.54,3.09,3.74,3.74,0,0,1-1.87,2,4.25,4.25,0,0,1-3.1.33,3.84,3.84,0,0,1-2.51-2.25A3.57,3.57,0,0,1,235.06,262.78Z"/><path class="cls-1" d="M249,255.47a5.3,5.3,0,0,0,.84,3.36,5.65,5.65,0,0,0,5.47,2.56,11,11,0,0,0,6.5-2.68,11.83,11.83,0,0,0,4.38-5.88,5.48,5.48,0,0,0-1.18-5.37,5.26,5.26,0,0,0-3.12-1.7,8,8,0,0,0-4.16.53,5.78,5.78,0,0,0,1-3.12,4,4,0,0,0-1-2.66,5.3,5.3,0,0,0-4.25-1.83,9,9,0,0,0-5.44,2.24c-1.86,1.58-3.16,3-3.71,4.58a4.92,4.92,0,0,0,.53,4.48,4.09,4.09,0,0,0,2.23,1.7,6,6,0,0,0,3.58-.05A7.22,7.22,0,0,0,249,255.47Zm4.66-2.37a3.9,3.9,0,0,1,1.67-2.68,4.25,4.25,0,0,1,2.81-1,3.23,3.23,0,0,1,2.45,1.29,3.36,3.36,0,0,1,.84,2.87,4.88,4.88,0,0,1-4.63,3.57,3.59,3.59,0,0,1-3.14-4.06Zm-4.93-7.56a3.48,3.48,0,0,1,1.35-2,3.29,3.29,0,0,1,2.19-.8,2.64,2.64,0,0,1,2.4,3.08,3.65,3.65,0,0,1-1.42,2,3.43,3.43,0,0,1-2.24.86,2.34,2.34,0,0,1-1.86-1.1A2.45,2.45,0,0,1,248.71,245.54Z"/></g></g></svg>